<svg width="1090.606" height="462.01" viewBox="0 0 1090.606 462.01" xmlns="http://www.w3.org/2000/svg"><g id="svgGroup" stroke-linecap="round" fill-rule="evenodd" font-size="9pt" stroke="#ffffff" stroke-width="0.25mm" fill="#ffffff" style="stroke:#ffffff;stroke-width:0.25mm;fill:#ffffff"><path d="M 86.578 458.043 A 203.395 203.395 0 0 0 127.402 462.008 A 233.137 233.137 0 0 0 161.764 459.559 A 179.19 179.19 0 0 0 222.952 439.258 A 199.948 199.948 0 0 0 230.48 434.861 A 167.294 167.294 0 0 0 286.652 379.408 Q 309.402 342.308 309.402 299.608 Q 309.402 278.411 304.127 262.281 A 68.53 68.53 0 0 0 282.802 229.958 Q 256.202 207.908 208.602 195.308 A 1233.108 1233.108 0 0 1 207.459 195.033 Q 138.382 178.385 111.652 163.458 A 87.6 87.6 0 0 1 106.056 160.063 Q 99.321 155.611 94.71 150.579 A 35.445 35.445 0 0 1 84.702 126.008 Q 84.702 111.735 95.257 100.057 A 64.744 64.744 0 0 1 106.052 90.658 A 71.133 71.133 0 0 1 114.641 85.478 Q 133.925 75.608 161.702 75.608 A 123.697 123.697 0 0 1 169.797 75.883 Q 177.786 76.407 186.776 77.933 A 240.689 240.689 0 0 1 204.052 81.558 A 211.331 211.331 0 0 1 218.702 85.721 A 177.353 177.353 0 0 1 247.802 98.008 Q 256.076 102.389 261.982 103.723 A 21.57 21.57 0 0 0 266.702 104.308 A 24.688 24.688 0 0 0 272.513 103.561 Q 275.408 102.858 278.613 101.496 A 62.048 62.048 0 0 0 284.902 98.358 A 54.569 54.569 0 0 0 290.663 94.595 A 59.888 59.888 0 0 0 303.102 81.908 A 38.847 38.847 0 0 0 308.366 72.051 A 42.919 42.919 0 0 0 310.802 57.408 A 37.404 37.404 0 0 0 305.496 37.77 A 44.546 44.546 0 0 0 295.752 26.608 Q 286.346 18.733 272.838 13.046 A 142.883 142.883 0 0 0 255.152 7.008 A 187.912 187.912 0 0 0 231.791 2.223 A 235.649 235.649 0 0 0 198.802 0.008 A 225.807 225.807 0 0 0 171.251 1.64 A 177.721 177.721 0 0 0 124.602 13.658 A 203.423 203.423 0 0 0 110.197 20.293 A 170.355 170.355 0 0 0 68.602 49.708 A 179.642 179.642 0 0 0 60.333 58.268 A 152.808 152.808 0 0 0 33.602 99.058 A 153.105 153.105 0 0 0 30.813 105.801 A 131.116 131.116 0 0 0 21.702 153.308 A 131.044 131.044 0 0 0 21.702 153.36 Q 21.707 166.439 24.298 177.591 A 72.443 72.443 0 0 0 40.952 210.358 A 119.232 119.232 0 0 0 59.063 226.69 A 139.667 139.667 0 0 0 89.952 243.608 Q 119.702 255.508 151.902 263.208 A 668.088 668.088 0 0 1 155.826 264.17 Q 183.128 270.95 202.644 278.308 A 204.614 204.614 0 0 1 219.802 285.608 Q 235.521 293.243 241.155 306.93 A 44.758 44.758 0 0 1 244.302 324.108 A 47.699 47.699 0 0 1 232.726 356.203 A 63.613 63.613 0 0 1 218.052 368.558 Q 191.802 385.008 150.502 385.008 Q 119.002 385.008 91.352 373.458 Q 77.095 367.503 65.537 360.524 A 134.077 134.077 0 0 1 46.202 346.508 A 48.281 48.281 0 0 0 44.282 345.244 Q 40.866 343.113 37.551 341.883 A 25.352 25.352 0 0 0 28.702 340.208 A 22.717 22.717 0 0 0 13.658 345.484 A 29.282 29.282 0 0 0 7.702 352.458 A 48.541 48.541 0 0 0 2.175 364.789 A 57.083 57.083 0 0 0 0.002 380.808 Q 0.002 405.308 17.502 423.508 A 102.485 102.485 0 0 0 40.844 441.436 A 140.203 140.203 0 0 0 64.052 451.858 A 173.759 173.759 0 0 0 86.578 458.043 Z M 810.794 460.458 A 239.215 239.215 0 0 0 838.602 462.008 A 315.495 315.495 0 0 0 884.044 458.857 A 239.653 239.653 0 0 0 946.402 441.358 Q 993.302 420.708 1025.502 383.958 Q 1057.702 347.208 1074.152 299.258 Q 1090.602 251.308 1090.602 197.408 A 335.926 335.926 0 0 0 1090.207 180.952 Q 1086.154 98.336 1040.552 51.458 A 163.769 163.769 0 0 0 960.767 6.581 A 239.585 239.585 0 0 0 903.002 0.008 Q 864.502 0.008 827.052 9.458 A 394.119 394.119 0 0 0 807.645 14.862 Q 783.286 22.354 766.502 31.508 Q 754.211 37.852 745.85 45.206 A 59.411 59.411 0 0 0 735.352 57.058 A 55.304 55.304 0 0 0 727.776 74.809 A 72.738 72.738 0 0 0 725.902 91.708 A 51.125 51.125 0 0 0 726.197 97.286 A 40.56 40.56 0 0 0 728.002 105.708 Q 730.102 112.008 736.402 112.008 Q 738.59 112.008 741.187 111.325 A 31.352 31.352 0 0 0 744.452 110.258 Q 749.002 108.508 753.902 106.408 A 320.29 320.29 0 0 1 755.329 117.204 A 390.018 390.018 0 0 1 757.052 136.508 Q 757.643 145.565 757.901 153.513 A 360.827 360.827 0 0 1 758.102 165.208 Q 758.102 205.808 753.202 253.408 Q 748.302 301.008 742.002 342.308 Q 737.802 366.108 737.802 389.908 A 112.658 112.658 0 0 0 738.294 400.589 A 90.294 90.294 0 0 0 741.302 416.858 A 44.287 44.287 0 0 0 746.335 428.151 A 53.305 53.305 0 0 0 755.302 438.908 A 67.574 67.574 0 0 0 771.787 450.391 A 84.587 84.587 0 0 0 791.002 457.108 A 190.34 190.34 0 0 0 810.794 460.458 Z M 406.551 458.547 A 50.572 50.572 0 0 0 418.602 459.908 A 115.224 115.224 0 0 0 423.321 459.813 Q 448.072 458.799 463.752 446.958 A 67.152 67.152 0 0 0 464.843 446.117 Q 470.027 442.033 473.538 437.572 A 32.237 32.237 0 0 0 480.902 417.208 A 22.995 22.995 0 0 0 477.258 404.76 A 31.984 31.984 0 0 0 471.802 398.308 A 61.18 61.18 0 0 1 464.108 390.038 A 64.803 64.803 0 0 1 453.252 368.208 Q 449.971 356.833 448.74 342.177 A 224.854 224.854 0 0 1 448.002 323.408 A 436.838 436.838 0 0 1 448.276 308.451 Q 448.877 290.946 450.802 268.808 Q 453.602 236.608 458.502 199.508 Q 460.602 186.208 463.052 162.058 Q 465.502 137.908 467.602 112.008 A 813.005 813.005 0 0 0 468.721 96.459 Q 469.702 80.571 469.702 68.608 Q 469.702 39.908 462.352 20.658 Q 455.002 1.408 433.302 1.408 Q 421.402 1.408 407.752 7.708 A 91.455 91.455 0 0 0 400.406 11.501 A 75.293 75.293 0 0 0 384.652 23.458 A 47.772 47.772 0 0 0 380.199 28.537 Q 378.074 31.37 376.853 34.103 A 17.594 17.594 0 0 0 375.202 41.308 Q 375.202 46.208 380.802 55.308 A 102.445 102.445 0 0 1 392.857 77.899 A 125.264 125.264 0 0 1 400.052 107.108 Q 403.902 137.208 403.902 172.208 Q 403.902 210.008 400.402 246.408 A 1045.413 1045.413 0 0 1 398.531 264.201 Q 395.097 294.457 389.202 332.508 L 383.602 377.308 Q 381.677 392.708 381.076 404.138 A 183.095 183.095 0 0 0 380.802 413.708 A 127.081 127.081 0 0 0 381.058 421.987 Q 381.89 434.713 385.432 442.561 A 23.478 23.478 0 0 0 391.302 450.808 A 35.954 35.954 0 0 0 406.551 458.547 Z M 586.451 458.547 A 50.572 50.572 0 0 0 598.502 459.908 A 115.224 115.224 0 0 0 603.221 459.813 Q 627.972 458.799 643.652 446.958 A 67.152 67.152 0 0 0 644.743 446.117 Q 649.927 442.033 653.438 437.572 A 32.237 32.237 0 0 0 660.802 417.208 A 22.995 22.995 0 0 0 657.158 404.76 A 31.984 31.984 0 0 0 651.702 398.308 A 61.18 61.18 0 0 1 644.008 390.038 A 64.803 64.803 0 0 1 633.152 368.208 Q 629.871 356.833 628.64 342.177 A 224.854 224.854 0 0 1 627.902 323.408 A 436.838 436.838 0 0 1 628.176 308.451 Q 628.777 290.946 630.702 268.808 Q 633.502 236.608 638.402 199.508 Q 640.502 186.208 642.952 162.058 Q 645.402 137.908 647.502 112.008 A 813.005 813.005 0 0 0 648.621 96.459 Q 649.602 80.571 649.602 68.608 Q 649.602 39.908 642.252 20.658 Q 634.902 1.408 613.202 1.408 Q 601.302 1.408 587.652 7.708 A 91.455 91.455 0 0 0 580.306 11.501 A 75.293 75.293 0 0 0 564.552 23.458 A 47.772 47.772 0 0 0 560.099 28.537 Q 557.974 31.37 556.753 34.103 A 17.594 17.594 0 0 0 555.102 41.308 Q 555.102 46.208 560.702 55.308 A 102.445 102.445 0 0 1 572.757 77.899 A 125.264 125.264 0 0 1 579.952 107.108 Q 583.802 137.208 583.802 172.208 Q 583.802 210.008 580.302 246.408 A 1045.413 1045.413 0 0 1 578.431 264.201 Q 574.997 294.457 569.102 332.508 L 563.502 377.308 Q 561.577 392.708 560.976 404.138 A 183.095 183.095 0 0 0 560.702 413.708 A 127.081 127.081 0 0 0 560.958 421.987 Q 561.79 434.713 565.332 442.561 A 23.478 23.478 0 0 0 571.202 450.808 A 35.954 35.954 0 0 0 586.451 458.547 Z M 861.002 383.608 Q 892.502 383.608 924.002 373.808 Q 955.502 364.008 981.052 344.408 A 143.265 143.265 0 0 0 1020.968 296.368 A 165.655 165.655 0 0 0 1022.002 294.358 Q 1037.402 263.908 1037.402 221.208 A 203.666 203.666 0 0 0 1034.744 187.346 Q 1030.315 161.096 1018.502 141.408 Q 999.602 109.908 968.102 94.508 A 152.766 152.766 0 0 0 912.294 79.65 A 183.28 183.28 0 0 0 898.102 79.108 Q 877.102 79.108 856.452 82.608 Q 837.799 85.77 826.285 88.932 A 137.258 137.258 0 0 0 823.902 89.608 Q 823.202 121.808 820.052 152.258 A 1413.1 1413.1 0 0 1 812.768 210.96 A 1304.314 1304.314 0 0 1 812.702 211.408 A 1107.358 1107.358 0 0 0 806.071 269.984 A 1017.208 1017.208 0 0 0 806.052 270.208 Q 803.602 298.908 803.602 326.908 Q 803.602 353.961 812.175 366.586 A 25.85 25.85 0 0 0 817.952 372.758 A 46.03 46.03 0 0 0 831.353 379.579 Q 837.718 381.688 845.543 382.693 A 121.697 121.697 0 0 0 861.002 383.608 Z" vector-effect="non-scaling-stroke"/></g></svg>